# xmcd CD database file
#
# Track frame offsets:
#	900
#	10545
#	18840
#	30203
#	38723
#	49906
#	65708
#	76501
#	87106
#	99915
#	113265
#	125564
#	138823
#	149892
#	159897
#	169826
#	183311
#
# Disc length: 2584 seconds
#
# Revison: 0
# Submitted via: cddb-tool 0.4.7
#
# Revision: 0
# Processed by: cddbd v1.5.2PL0 Copyright (c) Steve Scherf et al.
#
DISCID=c20a0c11
DTITLE=Johnny Cash - His Greatest Hits [CD 1)
DYEAR=1900
DGENRE=Country
TTITLE0=You Put Me Here
TTITLE1=Sloop John B
TTITLE2=The Color Of Love
TTITLE3=Deliah' Gone
TTITLE4=Children
TTITLE5=City Of New Orleans
TTITLE6=I'll
TTITLE7=This Town
TTITLE8=Help Me Make It Through The Night
TTITLE9=The Junkey And The Juicehead
TTITLE10=Don't Take Your Guns To Town
TTITLE11=It Ain't No Fun
TTITLE12=I Do Belive
TTITLE13=Some Folks Say
TTITLE14=The Sunny Side Of Life
TTITLE15=I Have To Go Away
TTITLE16=Christall Shandeliers And Burgandy
EXTD=
EXTT0=
EXTT1=
EXTT2=
EXTT3=
EXTT4=
EXTT5=
EXTT6=
EXTT7=
EXTT8=
EXTT9=
EXTT10=
EXTT11=
EXTT12=
EXTT13=
EXTT14=
EXTT15=
EXTT16=
PLAYORDER=
